<?xml version="1.0" standalone="no"?>
<!DOCTYPE svg PUBLIC "-//W3C//DTD SVG 20010904//EN"
 "http://www.w3.org/TR/2001/REC-SVG-20010904/DTD/svg10.dtd">
<svg version="1.0" xmlns="http://www.w3.org/2000/svg"
 width="512.000000pt" height="512.000000pt" viewBox="0 0 512.000000 512.000000"
 preserveAspectRatio="xMidYMid meet">

<g transform="translate(0.000000,512.000000) scale(0.100000,-0.100000)"
fill="#000000" stroke="none">
<path d="M2321 5109 c-486 -43 -989 -249 -1376 -564 -114 -92 -294 -274 -384
-387 -229 -287 -417 -675 -495 -1023 -49 -218 -60 -325 -60 -575 0 -250 11
-357 60 -575 79 -355 272 -749 509 -1040 92 -114 274 -294 387 -384 287 -229
675 -417 1023 -495 218 -49 325 -60 575 -60 250 0 357 11 575 60 261 58 603
204 828 353 389 259 688 599 893 1016 165 337 246 658 261 1033 23 598 -168
1183 -545 1672 -84 109 -323 348 -432 432 -528 407 -1164 595 -1819 537z m529
-173 c288 -37 533 -111 783 -237 659 -331 1138 -961 1277 -1679 53 -272 53
-648 0 -920 -137 -708 -615 -1341 -1257 -1668 -355 -181 -694 -262 -1093 -262
-392 0 -732 79 -1073 251 -657 329 -1138 962 -1277 1679 -53 272 -53 648 0
920 102 526 396 1025 810 1372 356 299 798 490 1265 547 117 14 441 12 565 -3z"/>
<path d="M1395 3725 c-17 -16 -25 -35 -25 -57 0 -30 46 -79 537 -570 l538
-538 -538 -538 c-491 -491 -537 -540 -537 -570 0 -44 38 -82 82 -82 30 0 79
46 570 537 l538 538 538 -538 c591 -590 566 -570 626 -511 59 60 79 35 -511
626 l-538 538 538 538 c491 491 537 540 537 570 0 44 -38 82 -82 82 -30 0 -79
-46 -570 -537 l-538 -538 -538 538 c-491 491 -540 537 -570 537 -22 0 -41 -8
-57 -25z"/>
</g>
</svg>
